# AST/ASF file generated using VICON BodyLanguage
# -----------------------------------------------
:version 1.10
:name VICON
:units
  mass 1.0
  length 0.45
  angle deg
:documentation
   .ast/.asf automatically generated from VICON data using
   VICON BodyBuilder and BodyLanguage model FoxedUp or BRILLIANT.MOD
:root
   order TX TY TZ RX RY RZ
   axis XYZ
   position 0 0 0  
   orientation 0 0 0 
:bonedata
  begin
     id 1 
     name lhipjoint
     direction 0.690799 -0.707083 0.151096 
     length 2.54797 
     axis 0 0 0  XYZ
  end
  begin
     id 2 
     name lfemur
     direction 0.34202 -0.939693 0  
     length 7.21646  
     axis 0 0 20  XYZ
    dof rx ry rz
    limits (-160.0 20.0)
           (-70.0 70.0)
           (-60.0 70.0)
  end
  begin
     id 3 
     name ltibia
     direction 0.34202 -0.939693 0   
     length 8.16759   
     axis 0 0 20   XYZ
    dof rx
    limits (-10.0 170.0)
  end
  begin
     id 4 
     name lfoot
     direction 0.0487203 -0.133858 0.989802   
     length 1.93375   
     axis -90 7.62852e-016 20   XYZ
    dof rx rz
    limits (-45.0 90.0)
           (-70.0 20.0)
  end
  begin
     id 5 
     name ltoes
     direction 1.53453e-011 -4.21783e-011 1   
     length 0.979747   
     axis -90 7.62852e-016 20   XYZ
    dof rx
    limits (-90.0 20.0)
  end
  begin
     id 6 
     name rhipjoint
     direction -0.694693 -0.703425 0.150315   
     length 2.56122  
     axis 0 0 0  XYZ 
  end
  begin
     id 7 
     name rfemur
     direction -0.34202 -0.939693 0   
     length 7.36786   
     axis 0 0 -20   XYZ
    dof rx ry rz
    limits (-160.0 20.0)
           (-70.0 70.0)
           (-70.0 60.0)
  end
  begin
     id 8 
     name rtibia
     direction -0.34202 -0.939693 0   
     length 8.07288   
     axis 0 0 -20   XYZ
    dof rx
    limits (-10.0 170.0)
 end
 begin
     id 9 
     name rfoot
     direction -0.0428397 -0.117701 0.992125   
     length 1.88295  
     axis -90 -7.62852e-016 -20   XYZ
    dof rx rz
    limits (-45.0 90.0)
           (-20.0 70.0)
  end
  begin
     id 10 
     name rtoes
     direction -1.53456e-011 -4.2187e-011 1   
     length 0.955578   
     axis -90 -7.62852e-016 -20   XYZ
    dof rx
    limits (-90.0 20.0)
  end
  begin
     id 11 
     name lowerback
     direction 0.0288145 0.999398 -0.0193241   
     length 1.92149   
     axis 0 0 0   XYZ
    dof rx ry rz
    limits (-20.0 45.0)
           (-30.0 30.0)
           (-30.0 30.0)
  end
  begin
     id 12 
     name upperback
     direction 0.0233784 0.998099 0.0570278   
     length 1.90435   
     axis 0 0 0   XYZ
    dof rx ry rz
    limits (-20.0 45.0)
           (-30.0 30.0)
           (-30.0 30.0)
  end
  begin
     id 13 
     name thorax
     direction 0.0096694 0.997833 0.0650817   
     length 1.9111   
     axis 0 0 0   XYZ
    dof rx ry rz
    limits (-20.0 45.0)
           (-30.0 30.0)
           (-30.0 30.0)
  end
  begin
     id 14 
     name lowerneck
     direction 0.00516803 0.999916 0.0118722   
     length 1.74664   
     axis 0 0 0   XYZ
    dof rx ry rz
    limits (-20.0 45.0)
           (-30.0 30.0)
           (-30.0 30.0)
  end
  begin
     id 15 
     name upperneck
     direction -0.0510851 0.996117 -0.071696   
     length 1.68498   
     axis 0 0 0   XYZ
    dof rx ry rz
    limits (-20.0 45.0)
           (-30.0 30.0)
           (-30.0 30.0)
  end
  begin
     id 16
     name head
     direction -0.019188 0.999436 -0.0275702  
     length 1.83483  
     axis 0 0 0   XYZ
    dof rx ry rz
    limits (-20.0 45.0)
           (-30.0 30.0)
           (-30.0 30.0)
  end
  begin
     id 17 
     name lclavicle
     direction 0.967006 0.248456 -0.0562957  
     length 3.39395  
     axis 0 0 0   XYZ
    dof ry rz
    limits (-20.0 10.0)
           (0.0 20.0)
  end
  begin
     id 18 
     name lhumerus
     direction 1 -4.48962e-011 -5.62711e-019   
     length 5.24318   
     axis 180 -30 -90   XYZ
    dof rx ry rz
    limits (-60.0 90.0)
           (-90.0 90.0)
           (-90.0 90.0)
  end
  begin
     id 19
     name lradius
     direction 1 -4.48966e-011 7.90625e-027   
     length 2.98999   
     axis 180 -30 -90   XYZ
    dof rx
    limits (-10.0 170.0)
  end
  begin
     id 20
     name lwrist
     direction 1 -4.48959e-011 1.61068e-026   
     length 1.49499   
     axis -9.31229e-015 90 90   XYZ
    dof ry
    limits (-180.0 0.0)
 end
  begin
     id 21 
     name lhand
     direction 1 -4.49017e-011 3.22136e-026   
     length 0.726745   
     axis -2.0555e-014 90 90   XYZ
    dof rx rz
    limits (-90.0 90.0)
           (-45.0 45.0)
  end
  begin
     id 22 
     name lfingers
     direction 1 -4.4898e-011 6.44272e-026   
     length 0.58592   
     axis -4.11101e-014 90 90   XYZ
    dof rx
    limits (0.0 90.0)
  end
  begin
     id 23
     name lthumb
     direction 0.707107 -6.34922e-011 0.707107   
     length 0.841268   
     axis -90 45 2.85299e-015   XYZ
    dof rx rz
    limits (-45.0 45.0)
           (-45.0 45.0)
  end
  begin
     id 24 
     name rclavicle
     direction -0.972232 0.230238 0.0419005   
     length 3.40416  
     axis 0 0 0   XYZ 
    dof ry rz
    limits (-10.0 20.0)
           (-20.0 0.0)
  end
  begin
     id 25 
     name rhumerus
     direction -1 -4.48976e-011 2.48487e-027  
     length 5.37045   
     axis 180 30 90   XYZ
    dof rx ry rz
    limits (-90.0 60.0)
           (-90.0 90.0)
           (-90.0 90.0)
  end
  begin
     id 26 
     name rradius
     direction -1 -4.48942e-011 7.87951e-027   
     length 2.92792   
     axis 180 30 90   XYZ
    dof rx
    limits (-10.0 170.0)
  end
  begin
     id 27 
     name rwrist
     direction -1 -4.48969e-011 1.61068e-026   
     length 1.46396   
     axis -9.31229e-015 -90 -90   XYZ
    dof ry
    limits (-180.0 0.0)
  end
  begin
     id 28
     name rhand
     direction -1 -4.49043e-011 3.22136e-026   
     length 0.784497   
     axis -2.0555e-014 -90 -90   XYZ
    dof rx rz
    limits (-90.0 90.0)
           (-45.0 45.0)
  end
  begin
     id 29
     name rfingers
     direction -1 -4.48823e-011 6.44272e-026   
     length 0.632482   
     axis -4.11101e-014 -90 -90   XYZ
    dof rx
    limits (0.0 90.0)
  end
  begin
     id 30
     name rthumb
     direction -0.707107 -6.34923e-011 0.707107   
     length 0.908121   
     axis -90 -45 -2.85299e-015   XYZ
    dof rx rz
    limits (-45.0 45.0)
           (-45.0 45.0)
  end
:hierarchy
  begin
    root lhipjoint rhipjoint lowerback
    lhipjoint lfemur
    lfemur ltibia
    ltibia lfoot
    lfoot ltoes
    rhipjoint rfemur
    rfemur rtibia
    rtibia rfoot
    rfoot rtoes
    lowerback upperback
    upperback thorax
    thorax lowerneck lclavicle rclavicle
    lowerneck upperneck
    upperneck head
    lclavicle lhumerus
    lhumerus lradius
    lradius lwrist
    lwrist lhand lthumb
    lhand lfingers
    rclavicle rhumerus
    rhumerus rradius
    rradius rwrist
    rwrist rhand rthumb
    rhand rfingers
  end

#!OML:ASF E:\Style6\Style6.ASF
:FULLY-SPECIFIED
:DEGREES
1123
root 0.310444 16.5801 0.612911 17.0679 6.02998 -1.0097
lowerback 13.8189 -2.10806 2.7592
upperback -4.42327 -1.9397 3.13186
thorax -12.668 -0.969357 2.37311
lowerneck -12.3266 -1.28101 0.181469
upperneck 13.7897 -1.09992 -4.23917
head 6.18807 -0.865188 -1.47628
rclavicle -7.05686e-014 2.22639e-014
rhumerus -76.2341 14.7096 -82.9618
rradius 125.658
rwrist -22.7526
rhand 52.8779 -0.216262
rfingers 7.12502
rthumb 71.7109 10.4584
lclavicle -7.05686e-014 2.22639e-014
lhumerus -79.0561 -15.0574 93.5839
lradius 116.062
lwrist 40.2177
lhand 27.7191 41.7126
lfingers 7.12502
lthumb 51.6451 62.0267
rfemur -46.5424 -25.2633 27.2568
rtibia 56.0704
rfoot -19.5546 7.29403
rtoes -5.90098
lfemur -45.5013 9.97216 -18.8263
ltibia 56.8058
lfoot -22.4993 -5.55764
ltoes -12.8053
1124
root 0.31121 16.5782 0.621921 17.0731 5.98385 -0.918185
lowerback 13.7896 -2.08264 2.67494
upperback -4.54282 -1.92059 3.11742
thorax -12.7854 -0.953917 2.40464
lowerneck -12.2373 -1.30976 0.125924
upperneck 13.9444 -1.13198 -4.19181
head 6.2218 -0.880699 -1.45571
rclavicle 3.97569e-015 -4.77083e-015
rhumerus -76.3057 14.6333 -83.0017
rradius 125.594
rwrist -22.8525
rhand 51.3971 0.548192
rfingers 7.12502
rthumb 70.8383 7.6922
lclavicle 3.97569e-015 -4.77083e-015
lhumerus -79.0801 -14.9984 93.6108
lradius 116.008
lwrist 40.3195
lhand 27.577 41.7518
lfingers 7.12502
lthumb 51.5159 62.1406
rfemur -46.5115 -25.133 27.1002
rtibia 56.1252
rfoot -19.6884 7.11322
rtoes -6.58616
lfemur -45.4406 9.90766 -18.9074
ltibia 56.7895
lfoot -22.5327 -5.50596
ltoes -12.6177
1125
root 0.309792 16.5723 0.628624 17.0683 5.87085 -0.737956
lowerback 13.7608 -2.0364 2.43378
upperback -4.58019 -1.9092 3.07876
thorax -12.8027 -0.931319 2.49525
lowerneck -12.299 -1.32139 0.139262
upperneck 14.1058 -1.14695 -4.17608
head 6.28326 -0.888365 -1.45674
rclavicle -1.11319e-014 9.54166e-015
rhumerus -76.2184 14.5514 -83.0041
rradius 125.538
rwrist -22.9873
rhand 50.6079 0.956712
rfingers 7.12502
rthumb 70.3444 6.35321
lclavicle -1.11319e-014 9.54166e-015
lhumerus -78.9626 -14.9424 93.5702
lradius 115.94
lwrist 40.435
lhand 27.5176 41.808
lfingers 7.12502
lthumb 51.462 62.2278
rfemur -46.5057 -24.9809 26.8337
rtibia 56.21
rfoot -19.7703 7.0004
rtoes -6.79138
lfemur -45.3703 9.89977 -19.1026
ltibia 56.7952
lfoot -22.5931 -5.37567
ltoes -12.5428
1126
root 0.310391 16.5683 0.635223 17.0598 5.79613 -0.641703
lowerback 13.7022 -2.01384 2.31624
upperback -4.55954 -1.90677 3.06084
thorax -12.7392 -0.922435 2.53692
lowerneck -12.4941 -1.33487 0.189393
upperneck 14.3065 -1.16202 -4.20269
head 6.37979 -0.899223 -1.47933
rclavicle 1.13307e-014 -4.53229e-014
rhumerus -76.0112 14.4863 -82.9913
rradius 125.523
rwrist -23.17
rhand 50.639 0.80066
rfingers 7.12502
rthumb 70.3642 6.26417
lclavicle 1.13307e-014 -4.53229e-014
lhumerus -78.7634 -14.8507 93.4879
lradius 115.872
lwrist 40.5709
lhand 27.4864 41.8575
lfingers 7.12502
lthumb 51.4336 62.2937
rfemur -46.4865 -24.8825 26.6725
rtibia 56.2727
rfoot -19.8488 6.90264
rtoes -6.97877
lfemur -45.3248 9.91228 -19.2093
ltibia 56.8384
lfoot -22.6712 -5.31878
ltoes -12.3832
1127
root 0.310671 16.5638 0.64024 17.1516 5.80491 -0.695448
lowerback 13.5071 -2.01821 2.37436
upperback -4.53648 -1.90717 3.09677
thorax -12.5956 -0.927178 2.53297
lowerneck -12.6891 -1.35031 0.242863
upperneck 14.5031 -1.17826 -4.24427
head 6.47501 -0.911616 -1.50746
rclavicle 1.86858e-014 7.15625e-015
rhumerus -75.7862 14.4429 -82.963
rradius 125.517
rwrist -23.3118
rhand 50.8938 0.507803
rfingers 7.12502
rthumb 70.5255 6.52683
lclavicle 1.86858e-014 7.15625e-015
lhumerus -78.4841 -14.706 93.3482
lradius 115.815
lwrist 40.6755
lhand 27.509 42.1246
lfingers 7.12502
lthumb 51.4541 62.5489
rfemur -46.583 -24.799 26.7587
rtibia 56.3012
rfoot -19.9205 6.7911
rtoes -7.30956
lfemur -45.4635 9.90551 -19.1553
ltibia 56.9216
lfoot -22.7132 -5.29275
ltoes -12.4137
1128
root 0.31218 16.5572 0.644255 17.3058 5.87865 -1.04544
lowerback 13.2158 -2.02668 2.77304
upperback -4.55392 -1.84443 3.21319
thorax -12.4528 -0.92492 2.40847
lowerneck -12.7209 -1.37347 0.203077
upperneck 14.6438 -1.20174 -4.21637
head 6.52541 -0.924602 -1.49622
rclavicle 1.2921e-014 -2.22639e-014
rhumerus -75.6241 14.4076 -82.9554
rradius 125.463
rwrist -23.3492
rhand 51.0833 0.35332
rfingers 7.12502
rthumb 70.6441 6.79143
lclavicle 1.2921e-014 -2.22639e-014
lhumerus -78.3272 -14.5453 93.235
lradius 115.817
lwrist 40.7332
lhand 27.5781 42.3378
lfingers 7.12502
lthumb 51.5169 62.7261
rfemur -46.7516 -24.6759 27.2218
rtibia 56.2831
rfoot -19.9267 6.76743
rtoes -7.09705
lfemur -45.7534 9.93958 -18.7901
ltibia 57.0402
lfoot -22.7487 -5.19836
ltoes -13.1148
